<svg version="1.1" id="Layer_1" xmlns="http://www.w3.org/2000/svg" xmlns:xlink="http://www.w3.org/1999/xlink" x="0px" y="0px"
	 width="100%" viewBox="0 0 409 681" enable-background="new 0 0 409 681" xml:space="preserve">
<path fill="#FFFFFF" opacity="1.000000" stroke="none" 
	d="
M148.000000,1.000000 
	C235.312195,1.000000 322.624390,1.000000 409.968292,1.000000 
	C409.968292,227.923920 409.968292,454.847870 409.968292,681.885864 
	C273.775818,681.885864 137.551498,681.885864 1.000000,681.885864 
	C1.000000,542.976074 1.000000,403.951935 1.345020,264.548737 
	C4.539376,270.103424 10.193880,271.810394 15.781469,271.866638 
	C45.271145,272.163544 74.766327,272.106049 104.256432,271.831451 
	C106.850586,271.807281 110.386940,269.995911 111.845734,267.882599 
	C120.695488,255.062408 129.068985,241.913437 137.611832,228.858612 
	C143.744568,233.445908 143.731522,233.357712 152.159088,232.111435 
	C153.589447,231.899918 155.521240,232.385605 156.654343,233.273117 
	C168.302246,242.396454 179.852585,251.645004 191.386703,260.912659 
	C195.583694,264.284943 199.496872,268.041687 203.895050,271.114166 
	C205.304718,272.098938 207.856232,271.449249 209.885315,271.547333 
	C209.825974,269.448090 210.569336,266.822601 209.588913,265.327271 
	C189.445404,234.604782 169.122192,203.999985 148.783997,173.405487 
	C146.122162,169.401321 142.049362,169.352310 139.325150,173.252563 
	C126.848541,191.115311 114.318245,208.942871 102.085609,226.971970 
	C99.183701,231.248962 96.314461,233.521530 90.737549,233.156570 
	C81.571136,232.556732 72.336845,232.994019 62.218002,232.994019 
	C90.442284,188.588135 118.073967,145.114594 146.086029,101.042595 
	C154.923019,113.735779 163.271667,125.054817 170.901779,136.839096 
	C183.494278,156.287491 195.643341,176.023453 207.930618,195.668671 
	C210.639481,199.999695 216.187851,200.346924 218.972321,196.026596 
	C226.730438,183.989273 234.342819,171.858093 242.031586,159.775970 
	C246.355408,152.981491 250.433868,146.004929 255.166428,139.506226 
	C258.024811,135.581131 261.335724,136.092133 263.994995,140.297424 
	C270.790833,151.044312 277.504364,161.844193 284.156311,172.680893 
	C295.769379,191.599823 307.341919,210.543823 318.872620,229.513077 
	C326.384460,241.870865 333.689636,254.356049 341.353546,266.617798 
	C342.552002,268.535217 345.106750,270.704742 347.143066,270.818970 
	C359.705109,271.523529 372.297760,271.900360 384.881409,271.934448 
	C395.133728,271.962250 400.614410,261.977509 396.264435,254.757095 
	C391.371246,246.635086 386.651947,238.407745 381.718994,230.310318 
	C360.211334,195.005508 338.543365,159.797897 317.148682,124.424896 
	C299.932587,95.960480 283.277954,67.153824 265.845398,38.824409 
	C259.625336,28.716333 248.932022,28.175074 242.513916,37.263950 
	C235.856506,46.691719 230.468109,57.015945 224.530853,66.951775 
	C219.667038,75.091232 214.887772,83.282562 209.919357,91.357582 
	C207.669296,95.014565 204.785599,95.024246 202.921402,91.554825 
	C189.600800,66.764259 176.364868,41.928051 162.987320,17.168325 
	C159.407135,10.541992 156.855728,2.803999 148.000000,1.000000 
M255.000000,338.429382 
	C255.000000,328.136749 255.000000,317.844147 255.000000,307.551514 
	C255.184494,307.526611 255.368988,307.501740 255.553482,307.476837 
	C258.449005,319.667145 261.344513,331.857452 264.242920,344.059967 
	C266.453979,343.962585 268.082733,343.890869 269.833801,343.813721 
	C272.736664,331.567596 275.590942,319.526367 278.445221,307.485138 
	C278.709930,307.514465 278.974609,307.543823 279.239319,307.573151 
	C279.239319,320.327515 279.239319,333.081848 279.239319,345.624390 
	C282.086639,345.624390 284.490540,345.624390 286.499908,345.624390 
	C286.499908,330.291687 286.499908,315.336334 286.499908,300.263489 
	C281.776886,300.263489 277.026581,300.263489 272.642761,300.263489 
	C270.891113,308.716736 269.206818,316.845032 267.522522,324.973297 
	C267.159698,324.964203 266.796906,324.955109 266.434082,324.946014 
	C264.763458,316.785187 263.092834,308.624359 261.376221,300.238770 
	C256.836487,300.238770 252.085159,300.238770 247.502502,300.238770 
	C247.502502,315.550873 247.502502,330.623260 247.502502,345.672638 
	C249.972305,345.672638 252.365570,345.672638 255.000000,345.672638 
	C255.000000,343.370789 255.000000,341.389648 255.000000,338.429382 
M31.017584,301.627197 
	C28.784592,316.322357 26.551600,331.017548 24.328535,345.647369 
	C27.050482,345.647369 29.451857,345.647369 31.520985,345.647369 
	C32.475159,338.970886 33.373447,332.685425 34.293049,326.250854 
	C37.846977,326.250854 41.259659,326.250854 44.687035,326.250854 
	C45.620262,332.917633 46.519627,339.342499 47.408768,345.694336 
	C50.029480,345.694336 52.444576,345.694336 55.018658,345.694336 
	C52.423302,330.331512 49.882618,315.292328 47.248672,299.701080 
	C41.921001,300.031647 36.525631,300.366425 31.017584,301.627197 
M112.117928,376.648224 
	C112.117928,378.732391 112.117928,380.816528 112.117928,382.989014 
	C115.654358,382.573608 118.638329,382.223114 121.502213,381.886719 
	C121.502213,395.659912 121.502213,408.768280 121.502213,421.780273 
	C124.049995,421.780273 126.326462,421.780273 129.017212,421.780273 
	C129.017212,408.493042 129.017212,395.417084 129.017212,381.836639 
	C132.593246,382.221924 135.681061,382.554626 138.645020,382.873962 
	C138.645020,380.281586 138.645020,378.228302 138.645020,376.075928 
	C129.814957,376.075928 121.338982,376.075928 112.117928,376.648224 
M225.955185,393.958679 
	C225.955185,403.154419 225.955185,412.350189 225.955185,421.772156 
	C227.045776,421.772156 228.797241,421.772156 231.123886,421.772156 
	C231.123886,416.161377 231.123886,410.644135 231.123886,405.126892 
	C237.299698,409.341644 237.180511,416.288788 239.664719,421.811890 
	C241.709641,421.811890 243.631195,421.811890 245.758011,421.811890 
	C244.226685,417.639771 242.795914,413.695221 241.329926,409.763794 
	C240.335373,407.096680 240.070892,405.044342 242.590622,402.526428 
	C244.286209,400.832062 245.268173,396.942505 244.523254,394.721191 
	C243.836746,392.674011 240.596344,390.730988 238.163223,390.201294 
	C234.670792,389.441101 230.889969,390.020813 227.232437,389.998932 
	C224.635422,389.983368 224.516006,391.215088 225.955185,393.958679 
M309.995819,408.947968 
	C309.995819,411.906006 309.995819,414.864044 309.995819,419.626709 
	C306.904510,417.552185 303.420715,416.379883 303.302673,414.932983 
	C302.795441,408.715912 302.910767,402.379547 303.563782,396.166992 
	C303.861694,393.332550 307.275269,393.283356 309.268036,395.487854 
	C310.502197,396.853119 312.357391,397.657013 314.320618,398.972015 
	C316.060944,393.107117 313.223297,390.210358 309.894592,389.278137 
	C306.125793,388.222656 301.484436,387.946899 299.077972,392.706177 
	C295.284515,400.208527 296.528748,408.244324 297.655457,415.899872 
	C298.673676,422.818512 307.802979,425.733154 313.593719,421.672607 
	C314.671143,420.917114 315.869354,419.365631 315.858093,418.192566 
	C315.807709,412.938110 315.340118,407.687622 315.009583,402.211975 
	C312.220337,402.211975 308.798340,402.211975 305.390625,402.211975 
	C305.390625,404.271484 305.390625,406.090698 305.390625,407.695129 
	C307.179718,407.838104 308.569763,407.949188 309.995819,408.947968 
M288.000000,418.285400 
	C288.000000,408.890991 288.000000,399.496582 288.000000,389.911926 
	C285.539948,390.047546 283.825104,390.142090 282.500000,390.215149 
	C282.635712,393.100708 282.748505,395.499176 282.888336,398.472809 
	C277.472687,395.395752 274.939758,389.126343 268.515808,390.126373 
	C268.515808,400.892700 268.515808,411.282379 268.515808,421.737701 
	C270.221527,421.737701 271.953583,421.737701 273.911621,421.737701 
	C273.911621,414.203400 273.911621,406.923798 273.911621,398.632965 
	C277.305847,401.238739 281.791107,402.923859 282.462494,405.574860 
	C283.738312,410.612610 282.832062,416.203003 282.832062,421.788696 
	C284.319580,421.021301 287.952148,424.466187 288.000000,418.285400 
M313.645813,314.123566 
	C313.645813,324.551483 313.645813,334.979401 313.645813,345.685669 
	C315.005737,345.685669 316.866516,345.685669 319.029053,345.685669 
	C319.029053,338.127625 319.029053,330.874817 319.029053,323.510834 
	C327.712097,326.929077 329.346710,331.463318 327.164581,345.658752 
	C329.057159,345.658752 330.913666,345.658752 332.646332,345.658752 
	C332.646332,334.922394 332.646332,324.527832 332.646332,313.941589 
	C330.561584,314.054840 328.843689,314.148163 327.438873,314.224487 
	C327.655762,317.048920 327.835266,319.386688 328.123260,323.137238 
	C325.907135,321.157135 324.863922,319.920593 323.554901,319.117157 
	C320.599792,317.303589 317.513306,315.704102 313.645813,314.123566 
M199.028137,394.004944 
	C198.716339,401.050720 197.464996,408.220123 198.371063,415.105652 
	C199.189850,421.327911 202.330795,423.750641 209.597107,423.010925 
	C213.350266,422.628845 216.783310,418.410217 216.965912,413.448883 
	C217.124588,409.137024 216.842468,404.807465 217.041687,400.498962 
	C217.266525,395.636536 215.681671,391.115723 211.429916,389.408966 
	C207.139282,387.686584 202.232086,388.457153 199.028137,394.004944 
M343.000000,339.228333 
	C342.709595,341.309235 342.419189,343.390137 342.043854,346.079407 
	C347.791901,345.105682 354.222900,348.555420 358.694916,342.559540 
	C362.114105,337.975250 362.105774,321.927429 358.669830,317.401062 
	C354.175079,311.479919 347.782806,314.858978 343.000000,314.096558 
	C343.000000,322.475281 343.000000,330.378906 343.000000,339.228333 
M94.000183,321.384399 
	C94.000183,318.962250 94.000183,316.540131 94.000183,313.928131 
	C91.547722,314.048492 89.816437,314.133453 88.522308,314.196960 
	C88.522308,325.052795 88.522308,335.339630 88.522308,345.735657 
	C90.188248,345.735657 91.923447,345.735657 94.131317,345.735657 
	C94.131317,340.401520 94.131317,335.318817 94.131317,330.348877 
	C97.012352,330.348877 99.407364,330.348877 102.264801,330.348877 
	C102.264801,335.758423 102.264801,340.824432 102.264801,346.070190 
	C104.480484,345.950439 106.202003,345.857391 107.479004,345.788361 
	C107.479004,334.918365 107.479004,324.634460 107.479004,314.279297 
	C105.783142,314.279297 104.049850,314.279297 101.844475,314.279297 
	C101.844475,317.960419 101.844475,321.375214 101.844475,325.367798 
	C98.951752,323.830353 94.981781,327.577179 94.000183,321.384399 
M161.000000,401.560028 
	C160.999969,404.886292 161.044510,408.213318 160.986740,411.538605 
	C160.934174,414.564148 160.889114,417.806610 156.713303,417.958740 
	C152.139236,418.125366 152.076019,414.617096 152.031250,411.468842 
	C151.931427,404.450409 152.000076,397.429596 152.000076,390.211823 
	C150.877930,390.211823 149.135391,390.211823 147.010483,390.211823 
	C147.010483,398.699707 146.556503,407.015961 147.156998,415.255371 
	C147.620804,421.619507 151.170013,423.295929 156.801147,423.050659 
	C162.661880,422.795410 165.681000,420.733734 165.905945,415.163696 
	C166.239700,406.899323 165.992355,398.611542 165.992355,390.431396 
	C163.698532,390.431396 161.882095,390.431396 160.484741,390.431396 
	C160.670731,394.098755 160.835358,397.345154 161.000000,401.560028 
M376.567566,313.000000 
	C374.200531,314.342865 370.706421,315.132477 369.715576,317.150909 
	C367.981934,320.682465 368.343933,324.823975 371.542236,328.079346 
	C374.959778,331.557831 378.271637,335.140106 381.595490,338.641144 
	C376.405243,343.961212 374.751526,343.151978 371.785065,333.723114 
	C370.204163,335.724762 368.298401,337.038635 368.150574,338.527069 
	C367.670227,343.363647 370.995697,346.891357 375.459473,346.999908 
	C382.469574,347.170380 386.517670,344.591644 385.748444,339.153076 
	C385.204498,335.307159 382.521790,331.666931 380.383606,328.186951 
	C379.414978,326.610474 377.102173,325.884460 376.040009,324.333679 
	C375.062592,322.906677 374.812469,320.905670 374.614899,319.116333 
	C374.590179,318.892578 377.570007,317.787567 377.906677,318.175751 
	C378.942841,319.370544 379.371246,321.092102 380.037323,322.608307 
	C380.196136,322.969727 380.360901,323.328522 380.421906,323.464050 
	C382.058350,323.167419 383.453949,322.914429 384.771362,322.675598 
	C385.204041,315.286407 383.833038,313.542664 376.567566,313.000000 
M201.000000,324.764282 
	C201.000275,328.916199 200.877457,333.072601 201.029007,337.218994 
	C201.270370,343.822632 205.032623,347.191132 211.690475,346.999847 
	C216.648193,346.857422 219.073563,343.514709 219.000336,336.930908 
	C218.991302,336.119324 218.999115,335.307526 218.999115,334.460114 
	C217.294403,333.950500 215.854965,333.520172 213.985519,332.961304 
	C213.985519,335.075714 214.436874,336.900970 213.860199,338.303497 
	C213.268082,339.743683 211.850128,341.245331 210.438461,341.776703 
	C209.742630,342.038605 207.302032,340.210602 207.264725,339.264648 
	C207.017578,332.996063 207.091766,326.704651 207.392441,320.436554 
	C207.433517,319.580383 209.392410,318.083313 210.324814,318.182709 
	C211.575790,318.316071 212.911209,319.539459 213.787949,320.633453 
	C214.363632,321.351776 214.193192,322.668030 214.329163,323.538879 
	C215.995865,323.197266 217.393326,322.910858 218.739182,322.635010 
	C219.098633,315.886444 216.429413,312.961334 210.129364,313.000000 
	C204.433853,313.034973 201.437927,316.593140 201.000000,324.764282 
M151.892792,324.613098 
	C149.664795,324.726257 147.436798,324.839386 144.942581,324.966064 
	C145.059830,322.590820 145.144989,320.865753 145.243408,318.871918 
	C148.685455,318.871918 151.634201,318.871918 154.761063,318.871918 
	C154.761063,317.174622 154.761063,315.784729 154.761063,314.450287 
	C149.375336,314.450287 144.231049,314.450287 139.519455,314.450287 
	C139.519455,325.064972 139.519455,335.229950 139.519455,345.697510 
	C144.354584,345.697510 149.561096,345.697510 155.049133,345.697510 
	C154.921127,344.005554 154.815552,342.610291 154.675552,340.759796 
	C151.277328,340.759796 148.212067,340.759796 145.218338,340.759796 
	C145.218338,336.994873 145.218338,333.717377 145.218338,329.990234 
	C148.169800,329.990234 150.914230,329.990234 154.649399,329.990234 
	C153.813141,327.580231 153.210617,325.843781 151.892792,324.613098 
M68.998680,321.749268 
	C68.998680,329.794922 68.998680,337.840546 68.998680,346.079285 
	C71.478584,345.951202 73.198517,345.862366 74.475311,345.796417 
	C74.475311,336.560638 74.475311,327.905457 74.475311,319.183594 
	C76.670601,319.027222 78.751259,318.879028 81.089554,318.712463 
	C80.928352,316.951996 80.801483,315.566498 80.674782,314.182892 
	C74.361984,314.182892 68.432091,314.182892 62.382401,314.182892 
	C62.382401,315.880707 62.382401,317.371948 62.382401,317.942841 
	C65.007721,319.079956 66.998169,319.942108 68.998680,321.749268 
M181.523163,421.984711 
	C182.969391,421.984711 184.415604,421.984711 185.487061,421.984711 
	C185.487061,412.746918 185.487061,404.061340 185.487061,394.936707 
	C187.532089,394.936707 189.606339,394.936707 191.736847,394.936707 
	C191.736847,393.100891 191.736847,391.712402 191.736847,390.266937 
	C185.394119,390.266937 179.313354,390.266937 172.979355,390.266937 
	C173.076477,391.953064 173.157333,393.356934 173.240295,394.797272 
	C175.653305,394.972565 177.722717,395.122894 180.000000,395.288330 
	C180.000000,397.449707 179.959290,399.262421 180.007202,401.072845 
	C180.190704,408.007080 180.402695,414.940613 181.523163,421.984711 
M172.000000,323.654816 
	C172.073776,322.207184 172.147552,320.759521 172.225784,319.224213 
	C174.587830,319.049042 176.670197,318.894623 178.985825,318.722900 
	C178.907043,317.037811 178.842224,315.651337 178.778763,314.293945 
	C172.317871,314.293945 166.254074,314.293945 159.924393,314.293945 
	C160.070251,316.012573 160.189011,317.411835 160.304703,318.775024 
	C162.725174,318.969543 164.784424,319.135010 167.235367,319.331940 
	C167.235367,328.438293 167.235367,337.155609 167.235367,345.645996 
	C169.409958,345.645996 171.145813,345.645996 172.000000,345.645996 
	C172.000000,338.402252 172.000000,331.513123 172.000000,323.654816 
M118.000000,336.373688 
	C117.762360,339.427582 117.524719,342.481506 117.276520,345.671173 
	C122.126633,345.671173 126.998802,345.671173 132.119217,345.671173 
	C131.936081,343.921875 131.789917,342.525726 131.617310,340.876984 
	C128.657349,340.876984 126.052078,340.876984 122.871628,340.876984 
	C122.871628,331.770111 122.871628,322.940186 122.871628,314.378479 
	C120.550049,314.378479 118.830200,314.378479 118.000000,314.378479 
	C118.000000,321.637238 118.000000,328.519409 118.000000,336.373688 
M304.000000,326.510986 
	C304.000000,322.411072 304.000000,318.311188 304.000000,314.290222 
	C301.675903,314.290222 299.918274,314.290222 298.516602,314.290222 
	C298.516602,324.860809 298.516602,335.143616 298.516602,345.682220 
	C300.026215,345.682220 301.879883,345.682220 304.000000,345.682220 
	C304.000000,339.416290 304.000000,333.462219 304.000000,326.510986 
M187.000000,321.722168 
	C187.000000,329.611267 187.000000,337.500397 187.000000,345.695190 
	C187.993393,345.695190 189.848526,345.695190 191.724884,345.695190 
	C191.724884,335.012726 191.724884,324.624023 191.724884,314.286438 
	C189.689987,314.286438 187.933823,314.286438 186.099579,314.286438 
	C186.426346,316.643707 186.713165,318.712830 187.000000,321.722168 
M259.000000,418.285400 
	C259.000000,408.890228 259.000000,399.495056 259.000000,390.374146 
	C256.543274,390.374146 254.817703,390.374146 253.519104,390.374146 
	C253.519104,401.021027 253.519104,411.297424 253.519104,421.951477 
	C255.320541,421.021271 258.952911,424.465881 259.000000,418.285400 
z"/>
<path fill="#FFFFFF" opacity="1.000000" stroke="none" 
	d="
M1.000001,256.000000 
	C1.000000,171.093521 1.000000,86.187035 1.000000,1.000000 
	C48.353859,1.000000 95.708267,1.000000 143.422089,1.358605 
	C140.849945,3.506870 136.640991,4.584392 135.184738,7.196529 
	C120.869316,32.874535 106.974365,58.787663 93.036880,84.675407 
	C83.291954,102.775833 73.680199,120.947906 63.984634,139.074966 
	C48.451874,168.115387 32.924217,197.158600 17.340691,226.171783 
	C11.976412,236.158905 6.451523,246.059738 1.000001,256.000000 
z"/>
<path fill="#050302" opacity="1.000000" stroke="none" 
	d="
M1.000001,256.444153 
	C6.451523,246.059738 11.976412,236.158905 17.340691,226.171783 
	C32.924217,197.158600 48.451874,168.115387 63.984634,139.074966 
	C73.680199,120.947906 83.291954,102.775833 93.036880,84.675407 
	C106.974365,58.787663 120.869316,32.874535 135.184738,7.196529 
	C136.640991,4.584392 140.849945,3.506870 143.890747,1.358605 
	C145.066666,1.000000 146.133347,1.000000 147.600006,1.000000 
	C156.855728,2.803999 159.407135,10.541992 162.987320,17.168325 
	C176.364868,41.928051 189.600800,66.764259 202.921402,91.554825 
	C204.785599,95.024246 207.669296,95.014565 209.919357,91.357582 
	C214.887772,83.282562 219.667038,75.091232 224.530853,66.951775 
	C230.468109,57.015945 235.856506,46.691719 242.513916,37.263950 
	C248.932022,28.175074 259.625336,28.716333 265.845398,38.824409 
	C283.277954,67.153824 299.932587,95.960480 317.148682,124.424896 
	C338.543365,159.797897 360.211334,195.005508 381.718994,230.310318 
	C386.651947,238.407745 391.371246,246.635086 396.264435,254.757095 
	C400.614410,261.977509 395.133728,271.962250 384.881409,271.934448 
	C372.297760,271.900360 359.705109,271.523529 347.143066,270.818970 
	C345.106750,270.704742 342.552002,268.535217 341.353546,266.617798 
	C333.689636,254.356049 326.384460,241.870865 318.872620,229.513077 
	C307.341919,210.543823 295.769379,191.599823 284.156311,172.680893 
	C277.504364,161.844193 270.790833,151.044312 263.994995,140.297424 
	C261.335724,136.092133 258.024811,135.581131 255.166428,139.506226 
	C250.433868,146.004929 246.355408,152.981491 242.031586,159.775970 
	C234.342819,171.858093 226.730438,183.989273 218.972321,196.026596 
	C216.187851,200.346924 210.639481,199.999695 207.930618,195.668671 
	C195.643341,176.023453 183.494278,156.287491 170.901779,136.839096 
	C163.271667,125.054817 154.923019,113.735779 146.086029,101.042595 
	C118.073967,145.114594 90.442284,188.588135 62.218002,232.994019 
	C72.336845,232.994019 81.571136,232.556732 90.737549,233.156570 
	C96.314461,233.521530 99.183701,231.248962 102.085609,226.971970 
	C114.318245,208.942871 126.848541,191.115311 139.325150,173.252563 
	C142.049362,169.352310 146.122162,169.401321 148.783997,173.405487 
	C169.122192,203.999985 189.445404,234.604782 209.588913,265.327271 
	C210.569336,266.822601 209.825974,269.448090 209.885315,271.547333 
	C207.856232,271.449249 205.304718,272.098938 203.895050,271.114166 
	C199.496872,268.041687 195.583694,264.284943 191.386703,260.912659 
	C179.852585,251.645004 168.302246,242.396454 156.654343,233.273117 
	C155.521240,232.385605 153.589447,231.899918 152.159088,232.111435 
	C143.731522,233.357712 143.744568,233.445908 137.611832,228.858612 
	C129.068985,241.913437 120.695488,255.062408 111.845734,267.882599 
	C110.386940,269.995911 106.850586,271.807281 104.256432,271.831451 
	C74.766327,272.106049 45.271145,272.163544 15.781469,271.866638 
	C10.193880,271.810394 4.539376,270.103424 1.345020,264.084839 
	C1.000000,261.629425 1.000000,259.258881 1.000001,256.444153 
M191.094421,251.522171 
	C191.236145,251.182709 191.377884,250.843246 191.359589,249.966644 
	C191.012131,249.543015 190.664673,249.119400 190.102020,248.044693 
	C174.880951,225.118439 159.659866,202.192184 144.129410,178.799942 
	C142.590347,180.880905 141.588028,182.178741 140.645813,183.518860 
	C128.969177,200.126495 117.461739,216.857605 105.482101,233.243546 
	C103.345795,236.165604 99.376007,239.286606 96.054924,239.521851 
	C84.951881,240.308273 73.754265,240.022568 62.602592,239.749786 
	C56.904190,239.610382 54.284901,234.515488 56.804207,229.381210 
	C57.314762,228.340714 57.963051,227.364578 58.585903,226.382919 
	C73.647499,202.644028 88.705551,178.902893 103.782959,155.174057 
	C115.201675,137.203278 126.519714,119.166512 138.138535,101.325821 
	C143.127625,93.665062 149.275650,93.676826 154.279922,101.110764 
	C167.655228,120.979958 180.986420,140.880859 194.111191,160.915863 
	C200.755814,171.058868 206.916351,181.518967 213.703476,192.495056 
	C221.445694,180.037918 228.894882,168.052261 236.833145,155.696030 
	C237.581329,154.248367 238.329514,152.800720 239.613312,150.905380 
	C240.753296,148.946609 241.893280,146.987823 243.566757,144.612106 
	C244.853180,142.473526 246.138641,140.334351 247.426178,138.196442 
	C253.474030,128.154037 264.572906,127.955620 270.739258,137.868042 
	C275.661377,145.780441 280.397186,153.808517 285.242767,161.768738 
	C305.403442,194.888260 325.616791,227.975876 345.669403,261.160645 
	C347.483246,264.162323 349.516083,265.109894 352.878693,265.069366 
	C362.868225,264.948975 372.866364,265.357025 382.850708,265.119812 
	C385.371979,265.059906 388.745728,264.008118 390.058075,262.200165 
	C391.019073,260.876282 389.828766,257.221100 388.611481,255.198212 
	C357.895355,204.154617 327.050293,153.188568 296.212708,102.218094 
	C295.536346,101.100151 294.886658,99.807991 293.877197,99.076057 
	C288.547394,95.211540 282.955658,91.694168 277.765503,87.656944 
	C275.081024,85.568741 273.107025,85.675163 270.830566,87.844261 
	C268.179779,90.369995 265.668121,93.084717 262.782501,95.311005 
	C258.461029,98.645088 255.136475,97.493752 253.025177,92.542152 
	C251.271072,88.428230 249.411102,84.342560 247.308258,80.398880 
	C245.134460,76.322105 242.065155,76.201157 238.092865,78.348618 
	C233.456909,80.854858 228.437912,82.643867 223.652283,84.887360 
	C222.271255,85.534767 220.761765,86.429573 219.935074,87.637825 
	C217.686859,90.923752 215.772491,94.438087 213.150314,98.018875 
	C212.358627,98.638168 211.566940,99.257462 210.076294,99.960487 
	C208.492844,100.240059 206.909378,100.519630 204.637589,100.590958 
	C201.850464,98.181084 198.336395,96.237709 196.427994,93.263916 
	C192.490814,87.128708 189.431030,80.432640 185.971619,73.988045 
	C181.909500,66.420670 177.806351,58.875320 173.295227,50.533024 
	C168.117645,54.890762 163.579849,58.987408 158.748352,62.702042 
	C153.425125,66.794739 150.320648,65.721390 147.577682,59.666466 
	C145.392258,54.842247 143.256653,49.903358 140.299149,45.559971 
	C138.827118,43.398144 134.779648,40.641972 133.248978,41.299839 
	C128.273712,43.438171 121.944916,45.953484 119.626198,50.219894 
	C82.399391,118.716751 45.711109,187.506317 8.913639,256.236420 
	C6.598158,260.561279 7.420687,262.897034 12.028248,264.510956 
	C13.864469,265.154144 15.932588,265.375641 17.895927,265.379395 
	C45.707443,265.432892 73.519264,265.370880 101.330490,265.476410 
	C104.569939,265.488708 106.425896,264.305756 108.152420,261.622803 
	C116.704338,248.333466 125.408028,235.140167 134.223480,222.024094 
	C135.309509,220.408264 137.440613,218.419662 138.983124,218.504333 
	C140.377502,218.580872 141.526749,221.364777 142.972244,222.759918 
	C144.437759,224.174362 146.730545,226.780930 147.634415,226.403931 
	C154.886475,223.379288 160.338593,226.948578 165.537521,230.877045 
	C173.626266,236.989166 181.433838,243.473373 189.686462,250.207672 
	C190.108536,250.489502 190.530609,250.771347 191.094421,251.522171 
M227.772354,77.103592 
	C229.534561,76.193275 231.351242,75.374031 233.050064,74.357765 
	C243.464142,68.127869 248.971207,69.648064 254.613495,80.516525 
	C256.237213,83.644234 257.558472,86.928963 258.948456,89.987778 
	C263.501221,86.426979 267.331207,82.563126 271.907623,80.068520 
	C277.833954,76.838074 280.861176,83.643692 285.523529,85.768394 
	C285.523529,84.943619 285.642517,84.564262 285.506531,84.338371 
	C276.946472,70.117073 268.431763,55.867741 259.753845,41.718510 
	C256.332092,36.139385 250.954315,36.220333 247.525055,41.816841 
	C240.846085,52.716885 234.286163,63.690090 227.727844,74.663429 
	C227.302216,75.375580 227.309753,76.346626 226.818512,76.836998 
	C226.693542,77.047989 226.568573,77.258972 226.443604,77.469971 
	C226.643143,77.333832 226.842682,77.197685 227.772354,77.103592 
M132.714813,25.187801 
	C131.781891,26.945391 130.848785,28.702885 129.916077,30.460596 
	C128.986832,32.211807 128.057953,33.963226 127.042732,35.876984 
	C146.116394,31.801193 147.700546,47.718445 154.202835,58.413109 
	C159.593872,53.958900 164.902359,49.572895 170.398178,45.032116 
	C164.590805,34.139675 158.758652,22.965055 152.691254,11.919643 
	C149.640244,6.365405 143.149261,6.368767 139.908981,11.832777 
	C137.457245,15.967089 135.316132,20.285606 132.714813,25.187801 
z"/>
<path fill="#FF6A00" opacity="1.000000" stroke="none" 
	d="
M255.000000,338.918945 
	C255.000000,341.389648 255.000000,343.370789 255.000000,345.672638 
	C252.365570,345.672638 249.972305,345.672638 247.502502,345.672638 
	C247.502502,330.623260 247.502502,315.550873 247.502502,300.238770 
	C252.085159,300.238770 256.836487,300.238770 261.376221,300.238770 
	C263.092834,308.624359 264.763458,316.785187 266.434082,324.946014 
	C266.796906,324.955109 267.159698,324.964203 267.522522,324.973297 
	C269.206818,316.845032 270.891113,308.716736 272.642761,300.263489 
	C277.026581,300.263489 281.776886,300.263489 286.499908,300.263489 
	C286.499908,315.336334 286.499908,330.291687 286.499908,345.624390 
	C284.490540,345.624390 282.086639,345.624390 279.239319,345.624390 
	C279.239319,333.081848 279.239319,320.327515 279.239319,307.573151 
	C278.974609,307.543823 278.709930,307.514465 278.445221,307.485138 
	C275.590942,319.526367 272.736664,331.567596 269.833801,343.813721 
	C268.082733,343.890869 266.453979,343.962585 264.242920,344.059967 
	C261.344513,331.857452 258.449005,319.667145 255.553482,307.476837 
	C255.368988,307.501740 255.184494,307.526611 255.000000,307.551514 
	C255.000000,317.844147 255.000000,328.136749 255.000000,338.918945 
z"/>
<path fill="#FF6A00" opacity="1.000000" stroke="none" 
	d="
M31.073923,301.164185 
	C36.525631,300.366425 41.921001,300.031647 47.248672,299.701080 
	C49.882618,315.292328 52.423302,330.331512 55.018658,345.694336 
	C52.444576,345.694336 50.029480,345.694336 47.408768,345.694336 
	C46.519627,339.342499 45.620262,332.917633 44.687035,326.250854 
	C41.259659,326.250854 37.846977,326.250854 34.293049,326.250854 
	C33.373447,332.685425 32.475159,338.970886 31.520985,345.647369 
	C29.451857,345.647369 27.050482,345.647369 24.328535,345.647369 
	C26.551600,331.017548 28.784592,316.322357 31.073923,301.164185 
M40.355015,306.114655 
	C39.609505,306.305847 38.281666,306.368591 38.206833,306.707764 
	C37.257389,311.011139 36.488094,315.354309 35.653938,319.788086 
	C38.696220,319.788086 40.643879,319.788086 43.341629,319.788086 
	C42.492241,315.230743 41.701977,310.990631 40.355015,306.114655 
z"/>
<path fill="#0A3EA1" opacity="1.000000" stroke="none" 
	d="
M112.490463,376.362061 
	C121.338982,376.075928 129.814957,376.075928 138.645020,376.075928 
	C138.645020,378.228302 138.645020,380.281586 138.645020,382.873962 
	C135.681061,382.554626 132.593246,382.221924 129.017212,381.836639 
	C129.017212,395.417084 129.017212,408.493042 129.017212,421.780273 
	C126.326462,421.780273 124.049995,421.780273 121.502213,421.780273 
	C121.502213,408.768280 121.502213,395.659912 121.502213,381.886719 
	C118.638329,382.223114 115.654358,382.573608 112.117928,382.989014 
	C112.117928,380.816528 112.117928,378.732391 112.490463,376.362061 
z"/>
<path fill="#0A3EA1" opacity="1.000000" stroke="none" 
	d="
M225.782990,393.531250 
	C224.516006,391.215088 224.635422,389.983368 227.232437,389.998932 
	C230.889969,390.020813 234.670792,389.441101 238.163223,390.201294 
	C240.596344,390.730988 243.836746,392.674011 244.523254,394.721191 
	C245.268173,396.942505 244.286209,400.832062 242.590622,402.526428 
	C240.070892,405.044342 240.335373,407.096680 241.329926,409.763794 
	C242.795914,413.695221 244.226685,417.639771 245.758011,421.811890 
	C243.631195,421.811890 241.709641,421.811890 239.664719,421.811890 
	C237.180511,416.288788 237.299698,409.341644 231.123886,405.126892 
	C231.123886,410.644135 231.123886,416.161377 231.123886,421.772156 
	C228.797241,421.772156 227.045776,421.772156 225.955185,421.772156 
	C225.955185,412.350189 225.955185,403.154419 225.782990,393.531250 
M233.508118,395.001526 
	C228.747009,395.562592 231.768341,398.724396 231.110992,400.998718 
	C232.545593,400.998718 233.695160,401.330719 234.468384,400.932312 
	C236.298508,399.989319 239.319061,398.793579 239.405945,397.531311 
	C239.628876,394.292114 236.540390,395.052765 233.508118,395.001526 
z"/>
<path fill="#0A3EA1" opacity="1.000000" stroke="none" 
	d="
M309.977844,408.504120 
	C308.569763,407.949188 307.179718,407.838104 305.390625,407.695129 
	C305.390625,406.090698 305.390625,404.271484 305.390625,402.211975 
	C308.798340,402.211975 312.220337,402.211975 315.009583,402.211975 
	C315.340118,407.687622 315.807709,412.938110 315.858093,418.192566 
	C315.869354,419.365631 314.671143,420.917114 313.593719,421.672607 
	C307.802979,425.733154 298.673676,422.818512 297.655457,415.899872 
	C296.528748,408.244324 295.284515,400.208527 299.077972,392.706177 
	C301.484436,387.946899 306.125793,388.222656 309.894592,389.278137 
	C313.223297,390.210358 316.060944,393.107117 314.320618,398.972015 
	C312.357391,397.657013 310.502197,396.853119 309.268036,395.487854 
	C307.275269,393.283356 303.861694,393.332550 303.563782,396.166992 
	C302.910767,402.379547 302.795441,408.715912 303.302673,414.932983 
	C303.420715,416.379883 306.904510,417.552185 309.995819,419.626709 
	C309.995819,414.864044 309.995819,411.906006 309.977844,408.504120 
z"/>
<path fill="#0A3EA1" opacity="1.000000" stroke="none" 
	d="
M287.999603,418.760315 
	C287.952148,424.466187 284.319580,421.021301 282.832062,421.788696 
	C282.832062,416.203003 283.738312,410.612610 282.462494,405.574860 
	C281.791107,402.923859 277.305847,401.238739 273.911621,398.632965 
	C273.911621,406.923798 273.911621,414.203400 273.911621,421.737701 
	C271.953583,421.737701 270.221527,421.737701 268.515808,421.737701 
	C268.515808,411.282379 268.515808,400.892700 268.515808,390.126373 
	C274.939758,389.126343 277.472687,395.395752 282.888336,398.472809 
	C282.748505,395.499176 282.635712,393.100708 282.500000,390.215149 
	C283.825104,390.142090 285.539948,390.047546 288.000000,389.911926 
	C288.000000,399.496582 288.000000,408.890991 287.999603,418.760315 
z"/>
<path fill="#FF6A00" opacity="1.000000" stroke="none" 
	d="
M314.063049,314.070557 
	C317.513306,315.704102 320.599792,317.303589 323.554901,319.117157 
	C324.863922,319.920593 325.907135,321.157135 328.123260,323.137238 
	C327.835266,319.386688 327.655762,317.048920 327.438873,314.224487 
	C328.843689,314.148163 330.561584,314.054840 332.646332,313.941589 
	C332.646332,324.527832 332.646332,334.922394 332.646332,345.658752 
	C330.913666,345.658752 329.057159,345.658752 327.164581,345.658752 
	C329.346710,331.463318 327.712097,326.929077 319.029053,323.510834 
	C319.029053,330.874817 319.029053,338.127625 319.029053,345.685669 
	C316.866516,345.685669 315.005737,345.685669 313.645813,345.685669 
	C313.645813,334.979401 313.645813,324.551483 314.063049,314.070557 
z"/>
<path fill="#0A3EA1" opacity="1.000000" stroke="none" 
	d="
M199.155182,393.614929 
	C202.232086,388.457153 207.139282,387.686584 211.429916,389.408966 
	C215.681671,391.115723 217.266525,395.636536 217.041687,400.498962 
	C216.842468,404.807465 217.124588,409.137024 216.965912,413.448883 
	C216.783310,418.410217 213.350266,422.628845 209.597107,423.010925 
	C202.330795,423.750641 199.189850,421.327911 198.371063,415.105652 
	C197.464996,408.220123 198.716339,401.050720 199.155182,393.614929 
M211.007538,414.324249 
	C210.926315,408.368164 210.967743,402.405060 210.629196,396.463623 
	C210.579468,395.590759 208.657211,394.094574 207.722885,394.182220 
	C206.484406,394.298431 204.403275,395.633759 204.350754,396.541595 
	C203.997375,402.649841 203.937820,408.789246 204.170303,414.903839 
	C204.210846,415.970184 206.149704,417.853271 207.095108,417.783264 
	C208.437149,417.683868 209.670975,416.123108 211.007538,414.324249 
z"/>
<path fill="#FF6A00" opacity="1.000000" stroke="none" 
	d="
M343.000000,338.755432 
	C343.000000,330.378906 343.000000,322.475281 343.000000,314.096558 
	C347.782806,314.858978 354.175079,311.479919 358.669830,317.401062 
	C362.105774,321.927429 362.114105,337.975250 358.694916,342.559540 
	C354.222900,348.555420 347.791901,345.105682 342.043854,346.079407 
	C342.419189,343.390137 342.709595,341.309235 343.000000,338.755432 
M355.013580,335.400696 
	C355.008667,331.567474 355.237823,327.715607 354.934174,323.906219 
	C354.619598,319.960419 352.488312,318.023132 348.242554,319.380768 
	C348.242554,326.598755 348.242554,333.706635 348.242554,340.710510 
	C352.422577,341.819366 354.432098,340.071625 355.013580,335.400696 
z"/>
<path fill="#FF6A00" opacity="1.000000" stroke="none" 
	d="
M94.000916,321.852234 
	C94.981781,327.577179 98.951752,323.830353 101.844475,325.367798 
	C101.844475,321.375214 101.844475,317.960419 101.844475,314.279297 
	C104.049850,314.279297 105.783142,314.279297 107.479004,314.279297 
	C107.479004,324.634460 107.479004,334.918365 107.479004,345.788361 
	C106.202003,345.857391 104.480484,345.950439 102.264801,346.070190 
	C102.264801,340.824432 102.264801,335.758423 102.264801,330.348877 
	C99.407364,330.348877 97.012352,330.348877 94.131317,330.348877 
	C94.131317,335.318817 94.131317,340.401520 94.131317,345.735657 
	C91.923447,345.735657 90.188248,345.735657 88.522308,345.735657 
	C88.522308,335.339630 88.522308,325.052795 88.522308,314.196960 
	C89.816437,314.133453 91.547722,314.048492 94.000183,313.928131 
	C94.000183,316.540131 94.000183,318.962250 94.000916,321.852234 
z"/>
<path fill="#0A3EA1" opacity="1.000000" stroke="none" 
	d="
M161.000000,401.075806 
	C160.835358,397.345154 160.670731,394.098755 160.484741,390.431396 
	C161.882095,390.431396 163.698532,390.431396 165.992355,390.431396 
	C165.992355,398.611542 166.239700,406.899323 165.905945,415.163696 
	C165.681000,420.733734 162.661880,422.795410 156.801147,423.050659 
	C151.170013,423.295929 147.620804,421.619507 147.156998,415.255371 
	C146.556503,407.015961 147.010483,398.699707 147.010483,390.211823 
	C149.135391,390.211823 150.877930,390.211823 152.000076,390.211823 
	C152.000076,397.429596 151.931427,404.450409 152.031250,411.468842 
	C152.076019,414.617096 152.139236,418.125366 156.713303,417.958740 
	C160.889114,417.806610 160.934174,414.564148 160.986740,411.538605 
	C161.044510,408.213318 160.999969,404.886292 161.000000,401.075806 
z"/>
<path fill="#FF6A00" opacity="1.000000" stroke="none" 
	d="
M376.995667,313.000000 
	C383.833038,313.542664 385.204041,315.286407 384.771362,322.675598 
	C383.453949,322.914429 382.058350,323.167419 380.421906,323.464050 
	C380.360901,323.328522 380.196136,322.969727 380.037323,322.608307 
	C379.371246,321.092102 378.942841,319.370544 377.906677,318.175751 
	C377.570007,317.787567 374.590179,318.892578 374.614899,319.116333 
	C374.812469,320.905670 375.062592,322.906677 376.040009,324.333679 
	C377.102173,325.884460 379.414978,326.610474 380.383606,328.186951 
	C382.521790,331.666931 385.204498,335.307159 385.748444,339.153076 
	C386.517670,344.591644 382.469574,347.170380 375.459473,346.999908 
	C370.995697,346.891357 367.670227,343.363647 368.150574,338.527069 
	C368.298401,337.038635 370.204163,335.724762 371.785065,333.723114 
	C374.751526,343.151978 376.405243,343.961212 381.595490,338.641144 
	C378.271637,335.140106 374.959778,331.557831 371.542236,328.079346 
	C368.343933,324.823975 367.981934,320.682465 369.715576,317.150909 
	C370.706421,315.132477 374.200531,314.342865 376.995667,313.000000 
z"/>
<path fill="#FF6A00" opacity="1.000000" stroke="none" 
	d="
M201.000000,324.303497 
	C201.437927,316.593140 204.433853,313.034973 210.129364,313.000000 
	C216.429413,312.961334 219.098633,315.886444 218.739182,322.635010 
	C217.393326,322.910858 215.995865,323.197266 214.329163,323.538879 
	C214.193192,322.668030 214.363632,321.351776 213.787949,320.633453 
	C212.911209,319.539459 211.575790,318.316071 210.324814,318.182709 
	C209.392410,318.083313 207.433517,319.580383 207.392441,320.436554 
	C207.091766,326.704651 207.017578,332.996063 207.264725,339.264648 
	C207.302032,340.210602 209.742630,342.038605 210.438461,341.776703 
	C211.850128,341.245331 213.268082,339.743683 213.860199,338.303497 
	C214.436874,336.900970 213.985519,335.075714 213.985519,332.961304 
	C215.854965,333.520172 217.294403,333.950500 218.999115,334.460114 
	C218.999115,335.307526 218.991302,336.119324 219.000336,336.930908 
	C219.073563,343.514709 216.648193,346.857422 211.690475,346.999847 
	C205.032623,347.191132 201.270370,343.822632 201.029007,337.218994 
	C200.877457,333.072601 201.000275,328.916199 201.000000,324.303497 
z"/>
<path fill="#FF6A00" opacity="1.000000" stroke="none" 
	d="
M152.250443,324.360229 
	C153.210617,325.843781 153.813141,327.580231 154.649399,329.990234 
	C150.914230,329.990234 148.169800,329.990234 145.218338,329.990234 
	C145.218338,333.717377 145.218338,336.994873 145.218338,340.759796 
	C148.212067,340.759796 151.277328,340.759796 154.675552,340.759796 
	C154.815552,342.610291 154.921127,344.005554 155.049133,345.697510 
	C149.561096,345.697510 144.354584,345.697510 139.519455,345.697510 
	C139.519455,335.229950 139.519455,325.064972 139.519455,314.450287 
	C144.231049,314.450287 149.375336,314.450287 154.761063,314.450287 
	C154.761063,315.784729 154.761063,317.174622 154.761063,318.871918 
	C151.634201,318.871918 148.685455,318.871918 145.243408,318.871918 
	C145.144989,320.865753 145.059830,322.590820 144.942581,324.966064 
	C147.436798,324.839386 149.664795,324.726257 152.250443,324.360229 
z"/>
<path fill="#FF6A00" opacity="1.000000" stroke="none" 
	d="
M68.993652,321.276764 
	C66.998169,319.942108 65.007721,319.079956 62.382401,317.942841 
	C62.382401,317.371948 62.382401,315.880707 62.382401,314.182892 
	C68.432091,314.182892 74.361984,314.182892 80.674782,314.182892 
	C80.801483,315.566498 80.928352,316.951996 81.089554,318.712463 
	C78.751259,318.879028 76.670601,319.027222 74.475311,319.183594 
	C74.475311,327.905457 74.475311,336.560638 74.475311,345.796417 
	C73.198517,345.862366 71.478584,345.951202 68.998680,346.079285 
	C68.998680,337.840546 68.998680,329.794922 68.993652,321.276764 
z"/>
<path fill="#0A3EA1" opacity="1.000000" stroke="none" 
	d="
M181.063599,421.929565 
	C180.402695,414.940613 180.190704,408.007080 180.007202,401.072845 
	C179.959290,399.262421 180.000000,397.449707 180.000000,395.288330 
	C177.722717,395.122894 175.653305,394.972565 173.240295,394.797272 
	C173.157333,393.356934 173.076477,391.953064 172.979355,390.266937 
	C179.313354,390.266937 185.394119,390.266937 191.736847,390.266937 
	C191.736847,391.712402 191.736847,393.100891 191.736847,394.936707 
	C189.606339,394.936707 187.532089,394.936707 185.487061,394.936707 
	C185.487061,404.061340 185.487061,412.746918 185.487061,421.984711 
	C184.415604,421.984711 182.969391,421.984711 181.063599,421.929565 
z"/>
<path fill="#FF6A00" opacity="1.000000" stroke="none" 
	d="
M172.000000,324.139404 
	C172.000000,331.513123 172.000000,338.402252 172.000000,345.645996 
	C171.145813,345.645996 169.409958,345.645996 167.235367,345.645996 
	C167.235367,337.155609 167.235367,328.438293 167.235367,319.331940 
	C164.784424,319.135010 162.725174,318.969543 160.304703,318.775024 
	C160.189011,317.411835 160.070251,316.012573 159.924393,314.293945 
	C166.254074,314.293945 172.317871,314.293945 178.778763,314.293945 
	C178.842224,315.651337 178.907043,317.037811 178.985825,318.722900 
	C176.670197,318.894623 174.587830,319.049042 172.225784,319.224213 
	C172.147552,320.759521 172.073776,322.207184 172.000000,324.139404 
z"/>
<path fill="#FF6A00" opacity="1.000000" stroke="none" 
	d="
M118.000000,335.887634 
	C118.000000,328.519409 118.000000,321.637238 118.000000,314.378479 
	C118.830200,314.378479 120.550049,314.378479 122.871628,314.378479 
	C122.871628,322.940186 122.871628,331.770111 122.871628,340.876984 
	C126.052078,340.876984 128.657349,340.876984 131.617310,340.876984 
	C131.789917,342.525726 131.936081,343.921875 132.119217,345.671173 
	C126.998802,345.671173 122.126633,345.671173 117.276520,345.671173 
	C117.524719,342.481506 117.762360,339.427582 118.000000,335.887634 
z"/>
<path fill="#FF6A00" opacity="1.000000" stroke="none" 
	d="
M304.000000,327.009552 
	C304.000000,333.462219 304.000000,339.416290 304.000000,345.682220 
	C301.879883,345.682220 300.026215,345.682220 298.516602,345.682220 
	C298.516602,335.143616 298.516602,324.860809 298.516602,314.290222 
	C299.918274,314.290222 301.675903,314.290222 304.000000,314.290222 
	C304.000000,318.311188 304.000000,322.411072 304.000000,327.009552 
z"/>
<path fill="#FF6A00" opacity="1.000000" stroke="none" 
	d="
M186.999985,321.252045 
	C186.713165,318.712830 186.426346,316.643707 186.099579,314.286438 
	C187.933823,314.286438 189.689987,314.286438 191.724884,314.286438 
	C191.724884,324.624023 191.724884,335.012726 191.724884,345.695190 
	C189.848526,345.695190 187.993393,345.695190 187.000000,345.695190 
	C187.000000,337.500397 187.000000,329.611267 186.999985,321.252045 
z"/>
<path fill="#0A3EA1" opacity="1.000000" stroke="none" 
	d="
M258.999603,418.760315 
	C258.952911,424.465881 255.320541,421.021271 253.519104,421.951477 
	C253.519104,411.297424 253.519104,401.021027 253.519104,390.374146 
	C254.817703,390.374146 256.543274,390.374146 259.000000,390.374146 
	C259.000000,399.495056 259.000000,408.890228 258.999603,418.760315 
z"/>
<path fill="#FD6900" opacity="1.000000" stroke="none" 
	d="
M236.344070,156.066620 
	C228.894882,168.052261 221.445694,180.037918 213.703476,192.495056 
	C206.916351,181.518967 200.755814,171.058868 194.111191,160.915863 
	C180.986420,140.880859 167.655228,120.979958 154.279922,101.110764 
	C149.275650,93.676826 143.127625,93.665062 138.138535,101.325821 
	C126.519714,119.166512 115.201675,137.203278 103.782959,155.174057 
	C88.705551,178.902893 73.647499,202.644028 58.585903,226.382919 
	C57.963051,227.364578 57.314762,228.340714 56.804207,229.381210 
	C54.284901,234.515488 56.904190,239.610382 62.602592,239.749786 
	C73.754265,240.022568 84.951881,240.308273 96.054924,239.521851 
	C99.376007,239.286606 103.345795,236.165604 105.482101,233.243546 
	C117.461739,216.857605 128.969177,200.126495 140.645813,183.518860 
	C141.588028,182.178741 142.590347,180.880905 144.129410,178.799942 
	C159.659866,202.192184 174.880951,225.118439 189.956482,248.634308 
	C189.660812,249.415909 189.510681,249.607895 189.360565,249.799896 
	C181.433838,243.473373 173.626266,236.989166 165.537521,230.877045 
	C160.338593,226.948578 154.886475,223.379288 147.634415,226.403931 
	C146.730545,226.780930 144.437759,224.174362 142.972244,222.759918 
	C141.526749,221.364777 140.377502,218.580872 138.983124,218.504333 
	C137.440613,218.419662 135.309509,220.408264 134.223480,222.024094 
	C125.408028,235.140167 116.704338,248.333466 108.152420,261.622803 
	C106.425896,264.305756 104.569939,265.488708 101.330490,265.476410 
	C73.519264,265.370880 45.707443,265.432892 17.895927,265.379395 
	C15.932588,265.375641 13.864469,265.154144 12.028248,264.510956 
	C7.420687,262.897034 6.598158,260.561279 8.913639,256.236420 
	C45.711109,187.506317 82.399391,118.716751 119.626198,50.219894 
	C121.944916,45.953484 128.273712,43.438171 133.248978,41.299839 
	C134.779648,40.641972 138.827118,43.398144 140.299149,45.559971 
	C143.256653,49.903358 145.392258,54.842247 147.577682,59.666466 
	C150.320648,65.721390 153.425125,66.794739 158.748352,62.702042 
	C163.579849,58.987408 168.117645,54.890762 173.295227,50.533024 
	C177.806351,58.875320 181.909500,66.420670 185.971619,73.988045 
	C189.431030,80.432640 192.490814,87.128708 196.427994,93.263916 
	C198.336395,96.237709 201.850464,98.181084 204.999176,101.053894 
	C212.358887,114.180519 219.293427,126.879974 226.384262,139.491547 
	C229.541962,145.107788 233.014450,150.547043 236.344070,156.066620 
z"/>
<path fill="#0A3EA0" opacity="1.000000" stroke="none" 
	d="
M213.725800,97.861893 
	C215.772491,94.438087 217.686859,90.923752 219.935074,87.637825 
	C220.761765,86.429573 222.271255,85.534767 223.652283,84.887360 
	C228.437912,82.643867 233.456909,80.854858 238.092865,78.348618 
	C242.065155,76.201157 245.134460,76.322105 247.308258,80.398880 
	C249.411102,84.342560 251.271072,88.428230 253.025177,92.542152 
	C255.136475,97.493752 258.461029,98.645088 262.782501,95.311005 
	C265.668121,93.084717 268.179779,90.369995 270.830566,87.844261 
	C273.107025,85.675163 275.081024,85.568741 277.765503,87.656944 
	C282.955658,91.694168 288.547394,95.211540 293.877197,99.076057 
	C294.886658,99.807991 295.536346,101.100151 296.212708,102.218094 
	C327.050293,153.188568 357.895355,204.154617 388.611481,255.198212 
	C389.828766,257.221100 391.019073,260.876282 390.058075,262.200165 
	C388.745728,264.008118 385.371979,265.059906 382.850708,265.119812 
	C372.866364,265.357025 362.868225,264.948975 352.878693,265.069366 
	C349.516083,265.109894 347.483246,264.162323 345.669403,261.160645 
	C325.616791,227.975876 305.403442,194.888260 285.242767,161.768738 
	C280.397186,153.808517 275.661377,145.780441 270.739258,137.868042 
	C264.572906,127.955620 253.474030,128.154037 247.426178,138.196442 
	C246.138641,140.334351 244.853180,142.473526 242.947815,144.776291 
	C240.931656,143.384659 239.188980,142.021957 238.193726,140.241455 
	C232.056458,129.261765 226.160461,118.147194 220.018173,107.170403 
	C218.195801,103.913643 215.838165,100.956383 213.725800,97.861893 
z"/>
<path fill="#F2FBFB" opacity="1.000000" stroke="none" 
	d="
M227.115814,77.197250 
	C227.309753,76.346626 227.302216,75.375580 227.727844,74.663429 
	C234.286163,63.690090 240.846085,52.716885 247.525055,41.816841 
	C250.954315,36.220333 256.332092,36.139385 259.753845,41.718510 
	C268.431763,55.867741 276.946472,70.117073 285.506531,84.338371 
	C285.642517,84.564262 285.523529,84.943619 285.523529,85.768394 
	C280.861176,83.643692 277.833954,76.838074 271.907623,80.068520 
	C267.331207,82.563126 263.501221,86.426979 258.948456,89.987778 
	C257.558472,86.928963 256.237213,83.644234 254.613495,80.516525 
	C248.971207,69.648064 243.464142,68.127869 233.050064,74.357765 
	C231.351242,75.374031 229.534561,76.193275 227.427917,77.115280 
	C227.083466,77.126976 227.115814,77.197250 227.115814,77.197250 
z"/>
<path fill="#F1FBFB" opacity="1.000000" stroke="none" 
	d="
M132.875809,24.854977 
	C135.316132,20.285606 137.457245,15.967089 139.908981,11.832777 
	C143.149261,6.368767 149.640244,6.365405 152.691254,11.919643 
	C158.758652,22.965055 164.590805,34.139675 170.398178,45.032116 
	C164.902359,49.572895 159.593872,53.958900 154.202835,58.413109 
	C147.700546,47.718445 146.116394,31.801193 127.042732,35.876984 
	C128.057953,33.963226 128.986832,32.211807 129.916077,30.460596 
	C130.848785,28.702885 131.781891,26.945391 132.875809,24.854977 
z"/>
<path fill="#624D65" opacity="1.000000" stroke="none" 
	d="
M236.588608,155.881317 
	C233.014450,150.547043 229.541962,145.107788 226.384262,139.491547 
	C219.293427,126.879974 212.358887,114.180519 205.343338,101.158020 
	C206.909378,100.519630 208.492844,100.240059 210.607010,100.232605 
	C215.115372,107.568848 219.158646,114.597008 223.054794,121.705803 
	C228.453705,131.556473 233.742020,141.467743 239.077698,151.353058 
	C238.329514,152.800720 237.581329,154.248367 236.588608,155.881317 
z"/>
<path fill="#1E4193" opacity="1.000000" stroke="none" 
	d="
M239.345505,151.129211 
	C233.742020,141.467743 228.453705,131.556473 223.054794,121.705803 
	C219.158646,114.597008 215.115372,107.568848 210.956482,100.190735 
	C211.566940,99.257462 212.358627,98.638168 213.438049,97.940384 
	C215.838165,100.956383 218.195801,103.913643 220.018173,107.170403 
	C226.160461,118.147194 232.056458,129.261765 238.193726,140.241455 
	C239.188980,142.021957 240.931656,143.384659 242.681061,144.984756 
	C241.893280,146.987823 240.753296,148.946609 239.345505,151.129211 
z"/>
<path fill="#FD6900" opacity="1.000000" stroke="none" 
	d="
M190.952667,251.053192 
	C190.530609,250.771347 190.108536,250.489502 189.523514,250.003784 
	C189.510681,249.607895 189.660812,249.415909 190.064087,248.959839 
	C190.664673,249.119400 191.012131,249.543015 191.291077,250.365570 
	C191.222549,250.764481 190.952667,251.053192 190.952667,251.053192 
z"/>
<path fill="#FD6900" opacity="1.000000" stroke="none" 
	d="
M191.371078,250.634125 
	C191.377884,250.843246 191.236145,251.182709 191.023544,251.287689 
	C190.952667,251.053192 191.222549,250.764481 191.371078,250.634125 
z"/>
<path fill="#F2FBFB" opacity="1.000000" stroke="none" 
	d="
M227.062836,77.094261 
	C226.842682,77.197685 226.643143,77.333832 226.443604,77.469971 
	C226.568573,77.258972 226.693542,77.047989 226.967163,77.017120 
	C227.115814,77.197250 227.083466,77.126976 227.062836,77.094261 
z"/>
<path fill="#FFFFFF" opacity="1.000000" stroke="none" 
	d="
M40.633362,306.432556 
	C41.701977,310.990631 42.492241,315.230743 43.341629,319.788086 
	C40.643879,319.788086 38.696220,319.788086 35.653938,319.788086 
	C36.488094,315.354309 37.257389,311.011139 38.206833,306.707764 
	C38.281666,306.368591 39.609505,306.305847 40.633362,306.432556 
z"/>
<path fill="#FFFFFF" opacity="1.000000" stroke="none" 
	d="
M233.952118,395.000854 
	C236.540390,395.052765 239.628876,394.292114 239.405945,397.531311 
	C239.319061,398.793579 236.298508,399.989319 234.468384,400.932312 
	C233.695160,401.330719 232.545593,400.998718 231.110992,400.998718 
	C231.768341,398.724396 228.747009,395.562592 233.952118,395.000854 
z"/>
<path fill="#FFFFFF" opacity="1.000000" stroke="none" 
	d="
M210.979294,414.755554 
	C209.670975,416.123108 208.437149,417.683868 207.095108,417.783264 
	C206.149704,417.853271 204.210846,415.970184 204.170303,414.903839 
	C203.937820,408.789246 203.997375,402.649841 204.350754,396.541595 
	C204.403275,395.633759 206.484406,394.298431 207.722885,394.182220 
	C208.657211,394.094574 210.579468,395.590759 210.629196,396.463623 
	C210.967743,402.405060 210.926315,408.368164 210.979294,414.755554 
z"/>
<path fill="#FFFFFF" opacity="1.000000" stroke="none" 
	d="
M355.004517,335.828674 
	C354.432098,340.071625 352.422577,341.819366 348.242554,340.710510 
	C348.242554,333.706635 348.242554,326.598755 348.242554,319.380768 
	C352.488312,318.023132 354.619598,319.960419 354.934174,323.906219 
	C355.237823,327.715607 355.008667,331.567474 355.004517,335.828674 
z"/>
</svg>